<?xml version="1.0" encoding="UTF-8"?>
<svg version="1.1" xmlns="http://www.w3.org/2000/svg" width="500" height="500">
<path d="M0 0 C165 0 330 0 500 0 C500 165 500 330 500 500 C335 500 170 500 0 500 C0 335 0 170 0 0 Z " fill="#FEFDF8" transform="translate(0,0)"/>
<path d="M0 0 C2.9375 0.875 2.9375 0.875 4.1015625 2.64453125 C7.11748816 10.69169739 4.41182231 20.41168591 1.01025391 27.92236328 C-1.23732094 32.63112115 -3.62568415 37.26183554 -6.0625 41.875 C-5.0725 41.215 -4.0825 40.555 -3.0625 39.875 C0.3125 39.4375 0.3125 39.4375 3.9375 39.875 C7.58492134 42.71188327 9.73786103 45.40361838 10.9375 49.875 C11.0625 53.1875 11.0625 53.1875 10.9375 55.875 C18.15355973 50.04592318 24.72796943 43.75573992 27.9375 34.875 C28.5975 34.875 29.2575 34.875 29.9375 34.875 C30.4325 39.33 30.4325 39.33 30.9375 43.875 C31.75154297 42.22951172 31.75154297 42.22951172 32.58203125 40.55078125 C33.3045797 39.09630061 34.02724196 37.6418765 34.75 36.1875 C35.10642578 35.46626953 35.46285156 34.74503906 35.83007812 34.00195312 C39.88175843 25.86142113 39.88175843 25.86142113 41.9375 22.875 C42.5975 22.875 43.2575 22.875 43.9375 22.875 C45.6416678 28.03446865 46.15975605 32.3175333 46.0625 37.8125 C46.05347656 38.49634766 46.04445313 39.18019531 46.03515625 39.88476562 C46.01188958 41.54833287 45.97603167 43.21171631 45.9375 44.875 C50.37515324 42.23586702 54.32525075 39.59014691 57.9375 35.875 C58.61298109 32.86979843 58.24137488 30.93219621 57.58203125 27.9375 C56.81408574 24.28859526 56.82619139 20.91197261 56.875 17.1875 C56.88402344 15.98738281 56.89304687 14.78726563 56.90234375 13.55078125 C56.91394531 12.66777344 56.92554688 11.78476563 56.9375 10.875 C54.51530704 11.77880334 52.10051455 12.69726058 49.6875 13.625 C49.00558594 13.87765625 48.32367188 14.1303125 47.62109375 14.390625 C43.56932922 15.96412579 40.80891994 17.47073925 37.9375 20.875 C36.4525 20.38 36.4525 20.38 34.9375 19.875 C34.9375 19.215 34.9375 18.555 34.9375 17.875 C41.32233596 13.33194364 49.92664794 7.875 57.9375 7.875 C57.916875 6.92625 57.89625 5.9775 57.875 5 C57.9375 1.875 57.9375 1.875 58.9375 -0.125 C59.9275 0.205 60.9175 0.535 61.9375 0.875 C61.9375 2.195 61.9375 3.515 61.9375 4.875 C62.48277344 4.730625 63.02804688 4.58625 63.58984375 4.4375 C69.18709924 3.05971403 74.17695745 2.69212563 79.9375 2.875 C79.9375 3.535 79.9375 4.195 79.9375 4.875 C73.9975 6.195 68.0575 7.515 61.9375 8.875 C61.76494861 21.29869999 62.05156246 33.41992343 63.22607422 45.7890625 C63.70549049 50.84814327 64.05075309 55.79276745 63.9375 60.875 C63.2775 60.875 62.6175 60.875 61.9375 60.875 C60.70786103 55.15658185 59.69372583 49.51758086 59.18359375 43.6875 C59.02369472 41.77838108 59.02369472 41.77838108 57.9375 39.875 C50.72422637 43.3970622 50.72422637 43.3970622 46.26855469 49.74511719 C45.42609377 54.06811005 45.27318672 58.45351309 45.07226562 62.84521484 C44.6059633 69.86847129 42.62946098 76.54786058 37.6875 81.6875 C34.31155904 83.97831708 31.89532336 83.58870585 27.9375 82.875 C25.875 81.4375 25.875 81.4375 24.9375 78.875 C24.51733146 72.36238761 26.60801339 68.16510223 30.0625 62.75 C30.61115723 61.88979248 30.61115723 61.88979248 31.17089844 61.01220703 C33.39241989 57.71201139 35.67420481 55.20451302 38.68359375 52.59765625 C42.34369144 49.04847062 42.78020056 46.14249081 42.90820312 41.15039062 C42.89724609 40.25513672 42.88628906 39.35988281 42.875 38.4375 C42.89111328 37.51517578 42.90722656 36.59285156 42.92382812 35.64257812 C42.95891714 33.3851846 42.96274186 31.13238893 42.9375 28.875 C42.2775 28.875 41.6175 28.875 40.9375 28.875 C40.67710937 29.72449219 40.41671875 30.57398438 40.1484375 31.44921875 C38.87611589 35.04865763 37.33245771 38.30603057 35.5625 41.6875 C34.97726563 42.82832031 34.39203125 43.96914062 33.7890625 45.14453125 C31.9375 47.875 31.9375 47.875 29.8984375 48.88671875 C27.9375 48.875 27.9375 48.875 24.9375 46.875 C23.78121094 48.13957031 23.78121094 48.13957031 22.6015625 49.4296875 C21.58856568 50.53648032 20.57554353 51.64324994 19.5625 52.75 C18.80066406 53.58337891 18.80066406 53.58337891 18.0234375 54.43359375 C16.0258974 56.61511781 14.02933907 58.78316093 11.9375 60.875 C11.59651972 62.80139285 11.33897659 64.74289954 11.125 66.6875 C9.30833192 79.33430473 4.71172586 89.58464741 -4.6875 98.3125 C-8.56895815 100.86609089 -10.90539774 101.91560008 -15.625 101.75 C-19.48893319 100.76645337 -20.91341353 100.22757489 -23.0625 96.875 C-23.92741565 91.10889566 -23.04648094 87.67109857 -19.7109375 82.92578125 C-15.35734253 77.50957898 -10.67016121 72.91333962 -4.921875 68.98828125 C-4.19460205 68.48264648 -3.4673291 67.97701172 -2.71801758 67.45605469 C-1.26457577 66.46096299 0.20951608 65.495241 1.7043457 64.56347656 C5.72974177 61.80900389 5.72974177 61.80900389 7.43310547 57.39648438 C7.4905887 52.55374343 6.83303364 48.37689239 4.9375 43.875 C-0.49634327 43.15099161 -0.49634327 43.15099161 -5.26953125 45.43359375 C-6.64578671 46.70260853 -7.9917441 48.00550512 -9.30078125 49.34375 C-11.0625 50.875 -11.0625 50.875 -14.0625 50.875 C-13.51526317 47.50037285 -13.0076 45.79265 -11.0625 42.875 C-14.18035113 43.52144661 -14.18035113 43.52144661 -15.0625 45.875 C-15.102492 47.87460012 -15.10596799 49.87547242 -15.0625 51.875 C-14.43988281 52.08382812 -13.81726563 52.29265625 -13.17578125 52.5078125 C-10.16700018 54.45434369 -10.03580596 56.31262421 -9.25 59.75 C-8.86908203 61.32394531 -8.86908203 61.32394531 -8.48046875 62.9296875 C-8.08344705 65.72739183 -7.96598468 67.29702249 -9.0625 69.875 C-11.625 71.625 -11.625 71.625 -14.0625 72.875 C-17.00565961 65.45311925 -18.24074098 59.03178172 -18.1875 51 C-18.18556641 50.29617188 -18.18363281 49.59234375 -18.18164062 48.8671875 C-18.14205805 44.11727807 -17.8426511 39.55590661 -17.0625 34.875 C-21.63217939 49.07206218 -23.09505713 63.00693067 -24.0625 77.875 C-25.5475 78.37 -25.5475 78.37 -27.0625 78.875 C-27.07058685 78.05702942 -27.07867371 77.23905884 -27.08700562 76.39630127 C-27.16495964 68.68614668 -27.25225266 60.97618111 -27.35002708 53.26625443 C-27.39996426 49.30253853 -27.44629444 45.33884895 -27.484375 41.375 C-27.52126052 37.5493701 -27.56762918 33.72396174 -27.62056351 29.89852142 C-27.63909013 28.43933754 -27.65420451 26.9801062 -27.66584396 25.52085114 C-27.68273638 23.47623529 -27.71177753 21.4321249 -27.74365234 19.38769531 C-27.75697601 18.22409485 -27.77029968 17.06049438 -27.7840271 15.8616333 C-28.05186723 12.98903687 -28.56633028 11.30679409 -30.0625 8.875 C-35.25668168 17.83048565 -39.1527949 30.44401858 -37.0625 40.875 C-35.58727446 42.51193692 -35.58727446 42.51193692 -34.0625 43.875 C-34.0625 44.535 -34.0625 45.195 -34.0625 45.875 C-35.9375 45.5625 -35.9375 45.5625 -38.0625 44.875 C-41.95989384 39.02890924 -40.97804988 29.47021779 -39.62744141 22.69140625 C-37.88504245 15.99011179 -35.69490808 10.14089978 -31.0625 4.875 C-29.25 4.9375 -29.25 4.9375 -27.0625 5.875 C-24.53194528 10.7724877 -23.67040841 14.54646811 -23.55078125 20.12109375 C-23.53283005 20.77707047 -23.51487885 21.43304718 -23.49638367 22.10890198 C-23.44277847 24.17670512 -23.40854907 26.24428438 -23.375 28.3125 C-23.34178257 29.72594231 -23.30728889 31.13935523 -23.27148438 32.55273438 C-23.18708381 35.99327446 -23.12003721 39.43389366 -23.0625 42.875 C-22.81733643 41.80080811 -22.57217285 40.72661621 -22.31958008 39.61987305 C-13.01747807 -0.53132564 -13.01747807 -0.53132564 0 0 Z " fill="#243630" transform="translate(142.0625,207.125)"/>
<path d="M0 0 C0.67256836 0.16628906 1.34513672 0.33257812 2.03808594 0.50390625 C18.55159614 4.6303734 33.55854979 11.48538283 47 22 C47.5681543 22.44327637 48.13630859 22.88655273 48.72167969 23.34326172 C69.19622344 39.56592145 84.93102546 61.63485608 92 87 C92 88.32 92 89.64 92 91 C91.01 91.495 91.01 91.495 90 92 C89.26924352 94.3140622 88.59861742 96.64828869 88 99 C87.67 99 87.34 99 87 99 C86.61521484 97.82050781 86.61521484 97.82050781 86.22265625 96.6171875 C79.73710762 77.42990945 72.48160504 60.30917035 59 45 C58.14259035 43.91923153 57.28781671 42.83635781 56.4375 41.75 C38.56011566 21.58064331 9.74110909 7.53323005 -17.14526367 5.796875 C-20.49569031 5.69689957 -23.83564628 5.67128789 -27.1875 5.6875 C-28.37496826 5.69168945 -29.56243652 5.69587891 -30.78588867 5.70019531 C-39.89414407 5.81692802 -48.18286454 6.71407599 -57 9 C-58.15886719 9.26683594 -59.31773437 9.53367188 -60.51171875 9.80859375 C-89.12911138 17.01902302 -113.50175144 37.10584889 -128.80371094 61.90722656 C-131.22196872 66.13769712 -133.12460866 70.61200577 -135.09277344 75.06420898 C-137.43591614 80.2078235 -140.23254783 84.02916238 -144.234375 88.0625 C-146.96235824 91.05603913 -148.38843754 94.30683603 -150 98 C-151.56545867 94.04672145 -150.3748288 90.79746066 -149.125 86.9375 C-148.90231445 86.24358154 -148.67962891 85.54966309 -148.45019531 84.8347168 C-136.9029613 50.44089132 -112.9933152 23.9114546 -80.71875 7.71484375 C-56.29206951 -3.91354178 -26.14341729 -6.82480788 0 0 Z " fill="#1A2D27" transform="translate(276,124)"/>
<path d="M0 0 C0.7895291 33.32217699 -5.54844822 60.41416293 -25 88 C-28.65316671 86.75023244 -29.78065836 86.32901247 -32 83 C-31.41992188 82.12859375 -30.83984375 81.2571875 -30.2421875 80.359375 C-25.26688289 72.80622001 -20.78128685 65.23738797 -17 57 C-16.63261719 56.25234375 -16.26523437 55.5046875 -15.88671875 54.734375 C-9.682554 41.03251308 -8.54931688 25.51936748 -8.32739258 10.69482422 C-8.3095874 9.7204541 -8.29178223 8.74608398 -8.2734375 7.7421875 C-8.26747559 6.8744873 -8.26151367 6.00678711 -8.25537109 5.11279297 C-8 3 -8 3 -6 1 C-5.34 1.33 -4.68 1.66 -4 2 C-1 0 -1 0 0 0 Z " fill="#1B2E28" transform="translate(372,234)"/>
<path d="M0 0 C0.66 0 1.32 0 2 0 C4.71929235 5.32528085 6.06589513 9.9973274 5 16 C3 19.0625 3 19.0625 1 21 C-0.32 20.67 -1.64 20.34 -3 20 C-3.66 17.69 -4.32 15.38 -5 13 C-5.27972656 13.49371094 -5.55945313 13.98742187 -5.84765625 14.49609375 C-8.16098472 18.19295629 -9.32126418 19.76184708 -13.5625 21.25 C-17 21 -17 21 -19.375 18.75 C-21 16 -21 16 -22 13 C-24.73176569 14.71432235 -27.00194047 16.45196953 -29 19 C-29.39343424 21.60436361 -29.25212506 23.90870321 -29.05859375 26.53125 C-28.9518065 31.03055289 -30.79299102 34.29921462 -33.375 37.9375 C-35.65259779 39.42669856 -37.34048696 39.27994874 -40 39 C-41 38 -41 38 -41.4375 35 C-41.42661104 29.76240869 -38.05038692 26.00363283 -35 22 C-36.51947499 18.63251488 -37.52100842 17.39159663 -41 16 C-41.70125 16.825 -42.4025 17.65 -43.125 18.5 C-46 21 -46 21 -49.0625 21.6875 C-52 21 -52 21 -54.375 18 C-54.91125 17.01 -55.4475 16.02 -56 15 C-56.31453125 15.5775 -56.6290625 16.155 -56.953125 16.75 C-57.38109375 17.4925 -57.8090625 18.235 -58.25 19 C-58.87648438 20.11375 -58.87648438 20.11375 -59.515625 21.25 C-60.25039063 22.11625 -60.25039063 22.11625 -61 23 C-62.32 23 -63.64 23 -65 23 C-66.72095223 21.27904777 -66.17199761 19.02836086 -66.1875 16.6875 C-66.20167969 15.72199219 -66.21585937 14.75648438 -66.23046875 13.76171875 C-65.99873224 10.98480842 -65.42140844 9.36526859 -64 7 C-63.01 7 -62.02 7 -61 7 C-61.33 11.29 -61.66 15.58 -62 20 C-61.27683594 18.700625 -61.27683594 18.700625 -60.5390625 17.375 C-59.90742188 16.26125 -59.27578125 15.1475 -58.625 14 C-57.99851562 12.88625 -57.37203125 11.7725 -56.7265625 10.625 C-56.15679687 9.75875 -55.58703125 8.8925 -55 8 C-54.34 8 -53.68 8 -53 8 C-52.34 11.63 -51.68 15.26 -51 19 C-45.80135295 17.05401615 -45.80135295 17.05401615 -43 13 C-42.525625 11.783125 -42.05125 10.56625 -41.5625 9.3125 C-40 6 -40 6 -37.8125 5.0625 C-37.214375 5.041875 -36.61625 5.02125 -36 5 C-36 5.99 -36 6.98 -36 8 C-36.66 8 -37.32 8 -38 8 C-38.33 9.65 -38.66 11.3 -39 13 C-38.236875 13.28875 -37.47375 13.5775 -36.6875 13.875 C-34 15 -34 15 -31 17 C-23.20865087 10.93793622 -23.20865087 10.93793622 -20 2 C-19.34 2 -18.68 2 -18 2 C-17.95101562 2.90363281 -17.90203125 3.80726563 -17.8515625 4.73828125 C-17.77679688 5.91777344 -17.70203125 7.09726563 -17.625 8.3125 C-17.55539062 9.48425781 -17.48578125 10.65601563 -17.4140625 11.86328125 C-17.21386253 15.15699887 -17.21386253 15.15699887 -15 18 C-11.03390092 16.48276747 -9.34326976 14.11305655 -6.9375 10.6875 C-6.26589844 9.74261719 -5.59429687 8.79773438 -4.90234375 7.82421875 C-2.9744564 5.03964741 -2.9744564 5.03964741 -1.37890625 2.14453125 C-0.92386719 1.43683594 -0.46882813 0.72914063 0 0 Z " fill="#21342E" transform="translate(358,219)"/>
<path d="M0 0 C2.21844626 0.19015254 3.41522155 0.41522155 5 2 C5.95485452 13.26728338 2.104199 23.46158532 -3 33.3125 C-3.33193359 33.96492676 -3.66386719 34.61735352 -4.00585938 35.28955078 C-6.46857951 39.80736007 -6.46857951 39.80736007 -9.1875 40.79296875 C-9.785625 40.86128906 -10.38375 40.92960937 -11 41 C-12.35439668 43.70879335 -12.06501451 46.00933268 -12 49 C-11.37738281 49.20882812 -10.75476563 49.41765625 -10.11328125 49.6328125 C-7.10450018 51.57934369 -6.97330596 53.43762421 -6.1875 56.875 C-5.93355469 57.92429687 -5.67960938 58.97359375 -5.41796875 60.0546875 C-5.02094705 62.85239183 -4.90348468 64.42202249 -6 67 C-8.5625 68.75 -8.5625 68.75 -11 70 C-13.94328801 62.57779545 -15.17727269 56.1569362 -15.125 48.125 C-15.1237915 47.41899658 -15.12258301 46.71299316 -15.12133789 45.9855957 C-15.09402572 42.34635408 -14.95413033 38.79049333 -14.4375 35.1875 C-13.75876119 31.98656229 -13.75876119 31.98656229 -15 29 C-12.33658604 18.92938004 -8.03792915 6.92869493 0 0 Z " fill="#F8F8F3" transform="translate(139,210)"/>
<path d="M0 0 C0 0.99 0 1.98 0 3 C-1.155 2.7525 -2.31 2.505 -3.5 2.25 C-17.31552654 0.79121769 -33.16572707 8.55967103 -46 13 C-46.9767249 23.02887177 -47.10849626 32.93395765 -47 43 C-46.14277344 42.566875 -45.28554688 42.13375 -44.40234375 41.6875 C-42.68724609 40.8521875 -42.68724609 40.8521875 -40.9375 40 C-39.81214844 39.443125 -38.68679688 38.88625 -37.52734375 38.3125 C-33.76473667 36.91246016 -30.97932691 36.7566781 -27 37 C-27 37.66 -27 38.32 -27 39 C-27.60585938 39.15855469 -28.21171875 39.31710938 -28.8359375 39.48046875 C-35.32134705 41.28640587 -41.07837438 43.81240153 -47 47 C-47.13523642 61.37042994 -46.82153963 75.65239711 -46 90 C-47.485 89.505 -47.485 89.505 -49 89 C-51.67614754 76.16488463 -51.64033819 63.05747818 -52 50 C-56.14670039 52.37629089 -56.14670039 52.37629089 -59 56 C-59.66 56 -60.32 56 -61 56 C-61 53.8125 -61 53.8125 -60 51 C-58.68188348 50.3667437 -57.34397865 49.77417408 -55.99609375 49.20703125 C-53.72623119 47.98158143 -53.72623119 47.98158143 -52 46 C-50.84267705 41.30333243 -50.97278083 36.69073702 -51.0625 31.875 C-51.05613293 29.33072081 -51.0471449 26.78644641 -51.03515625 24.2421875 C-51.0494165 23.1166748 -51.06367676 21.99116211 -51.07836914 20.83154297 C-51 18 -51 18 -50 15 C-52.71389153 16.21792682 -55.42063239 17.44873951 -58.125 18.6875 C-58.88554687 19.02716797 -59.64609375 19.36683594 -60.4296875 19.71679688 C-65.27629041 21.95208356 -69.05370655 24.40042562 -73 28 C-69.04 28 -65.08 28 -61 28 C-61 28.66 -61 29.32 -61 30 C-64.28519475 31.09506492 -66.73663415 31.09960608 -70.1875 31.0625 C-71.81751953 31.04896484 -71.81751953 31.04896484 -73.48046875 31.03515625 C-74.31191406 31.02355469 -75.14335937 31.01195312 -76 31 C-76.36561899 26.46784798 -76.36561899 26.46784798 -74.8125 24.48046875 C-62.30152089 15.55561081 -47.67173474 9.77155729 -33.1875 4.9375 C-32.15818359 4.58623047 -31.12886719 4.23496094 -30.06835938 3.87304688 C-9.26408617 -3.08802872 -9.26408617 -3.08802872 0 0 Z " fill="#253731" transform="translate(315,184)"/>
<path d="M0 0 C-0.64891078 12.76191193 -5.60570713 23.26006968 -14.3125 32.4375 C-17.99531087 34.57866911 -21.74000112 35.25108048 -26 35 C-28 33 -28 33 -28.375 29.25 C-28.09729098 21.50191828 -22.17999907 16.76202521 -16.9453125 11.61328125 C-3.85650224 0 -3.85650224 0 0 0 Z " fill="#F5F5F0" transform="translate(150,271)"/>
<path d="M0 0 C1.8125 0.0625 1.8125 0.0625 4 1 C6.53055472 5.8974877 7.39209159 9.67146811 7.51171875 15.24609375 C7.53864555 16.23005882 7.53864555 16.23005882 7.56611633 17.23390198 C7.61972153 19.30170512 7.65395093 21.36928438 7.6875 23.4375 C7.72071743 24.85094231 7.75521111 26.26435523 7.79101562 27.67773438 C7.87541619 31.11827446 7.94246279 34.55889366 8 38 C8.99 36.68 9.98 35.36 11 34 C10.45607246 39.95457514 9.76811585 45.88298579 9 51.8125 C8.092214 58.86040308 7.46148545 65.90769723 7 73 C5.515 73.495 5.515 73.495 4 74 C3.99191315 73.18202942 3.98382629 72.36405884 3.97549438 71.52130127 C3.89754036 63.81114668 3.81024734 56.10118111 3.71247292 48.39125443 C3.66253574 44.42753853 3.61620556 40.46384895 3.578125 36.5 C3.54123948 32.6743701 3.49487082 28.84896174 3.44193649 25.02352142 C3.42340987 23.56433754 3.40829549 22.1051062 3.39665604 20.64585114 C3.37976362 18.60123529 3.35072247 16.5571249 3.31884766 14.51269531 C3.30552399 13.34909485 3.29220032 12.18549438 3.2784729 10.9866333 C3.01063277 8.11403687 2.49616972 6.43179409 1 4 C-4.19418168 12.95548565 -8.0902949 25.56901858 -6 36 C-4.52477446 37.63693692 -4.52477446 37.63693692 -3 39 C-3 39.66 -3 40.32 -3 41 C-4.875 40.6875 -4.875 40.6875 -7 40 C-10.89739384 34.15390924 -9.91554988 24.59521779 -8.56494141 17.81640625 C-6.82254245 11.11511179 -4.63240808 5.26589978 0 0 Z " fill="#182B25" transform="translate(111,212)"/>
<path d="M0 0 C-0.43713559 9.48132024 -1.03777657 18.79057258 -5.8125 27.1875 C-8 29 -8 29 -11.125 29.4375 C-14 29 -14 29 -16 27 C-16.78620449 19.07151524 -12.44899879 13.03498035 -7.6328125 7.06640625 C-1.35824468 0 -1.35824468 0 0 0 Z " fill="#F6F6F1" transform="translate(185,259)"/>
<path d="M0 0 C1.22640296 3.67920887 1.02999491 6.93886655 0.8125 10.75 C0.77133057 11.47429199 0.73016113 12.19858398 0.68774414 12.94482422 C0.26739575 18.46244341 -0.97285181 21.50810268 -4 26 C-4.33690298 29.29376525 -4.33690298 29.29376525 -4 32 C-3.37738281 32.20882812 -2.75476563 32.41765625 -2.11328125 32.6328125 C0.89549982 34.57934369 1.02669404 36.43762421 1.8125 39.875 C2.06644531 40.92429687 2.32039062 41.97359375 2.58203125 43.0546875 C2.97905295 45.85239183 3.09651532 47.42202249 2 50 C-0.5625 51.75 -0.5625 51.75 -3 53 C-10.00309012 35.34003361 -7.09833483 19.45006798 -1 2 C-0.67 1.34 -0.34 0.68 0 0 Z " fill="#192C26" transform="translate(131,227)"/>
<path d="M0 0 C0.99 0.33 1.98 0.66 3 1 C3 2.32 3 3.64 3 5 C3.54527344 4.855625 4.09054688 4.71125 4.65234375 4.5625 C10.24959924 3.18471403 15.23945745 2.81712563 21 3 C21 3.66 21 4.32 21 5 C15.06 6.32 9.12 7.64 3 9 C2.67 15.6 2.34 22.2 2 29 C1.34 29 0.68 29 0 29 C-0.33 29.66 -0.66 30.32 -1 31 C-1.88277755 26.48184719 -2.10589503 22.22487306 -2.0625 17.625 C-2.05347656 16.37976563 -2.04445312 15.13453125 -2.03515625 13.8515625 C-2.02355469 12.91054687 -2.01195312 11.96953125 -2 11 C-4.42219296 11.90380334 -6.83698545 12.82226058 -9.25 13.75 C-9.93191406 14.00265625 -10.61382812 14.2553125 -11.31640625 14.515625 C-15.36817078 16.08912579 -18.12858006 17.59573925 -21 21 C-21.99 20.67 -22.98 20.34 -24 20 C-24 19.34 -24 18.68 -24 18 C-17.61516404 13.45694364 -9.01085206 8 -1 8 C-1.020625 7.05125 -1.04125 6.1025 -1.0625 5.125 C-1 2 -1 2 0 0 Z " fill="#30423C" transform="translate(201,207)"/>
<path d="M0 0 C3.05623277 2.09110663 3.86463014 3.29306849 4.5625 6.9375 C3.80057749 11.08574477 2.36344489 12.51397551 -1 15 C-4.68455227 15.6767545 -6.24316508 15.49791771 -9.375 13.4375 C-11.63913895 10.04129157 -11.64269755 7.99900698 -11 4 C-7.69532025 0.20933794 -4.96286146 -0.84474238 0 0 Z " fill="#E9EAE5" transform="translate(306,342)"/>
<path d="M0 0 C0.66 0 1.32 0 2 0 C4.71929235 5.32528085 6.06589513 9.9973274 5 16 C3 19.0625 3 19.0625 1 21 C-0.32 20.67 -1.64 20.34 -3 20 C-3.66 17.69 -4.32 15.38 -5 13 C-5.32613281 13.49371094 -5.65226562 13.98742187 -5.98828125 14.49609375 C-6.42527344 15.13675781 -6.86226563 15.77742187 -7.3125 16.4375 C-7.74175781 17.07558594 -8.17101562 17.71367187 -8.61328125 18.37109375 C-10 20 -10 20 -13 21 C-12.41158115 17.17966863 -10.65777152 15.09774567 -8.1875 12.1875 C-4.95965789 8.27584214 -2.34217998 4.4891783 0 0 Z " fill="#253731" transform="translate(358,219)"/>
<path d="M0 0 C-0.41281757 8.1187456 -2.27221318 17.43961105 -7.5390625 23.8828125 C-9 25 -9 25 -11 25 C-11.12375 23.80375 -11.2475 22.6075 -11.375 21.375 C-11.82325054 17.72403187 -12.70446837 14.45475101 -14 11 C-3.64705882 0 -3.64705882 0 0 0 Z " fill="#F8F7F2" transform="translate(150,271)"/>
<path d="M0 0 C0.66 0 1.32 0 2 0 C3.19287411 3.87684087 4 6.91621923 4 11 C3.34 11 2.68 11 2 11 C2 15.62 2 20.24 2 25 C1.67 25 1.34 25 1 25 C1 18.73 1 12.46 1 6 C0.34 6 -0.32 6 -1 6 C-1.26039063 6.84949219 -1.52078125 7.69898438 -1.7890625 8.57421875 C-3.06138411 12.17365763 -4.60504229 15.43103057 -6.375 18.8125 C-7.25285156 20.52373047 -7.25285156 20.52373047 -8.1484375 22.26953125 C-10 25 -10 25 -12.0390625 26.01171875 C-14 26 -14 26 -17 24 C-17.99 24 -18.98 24 -20 24 C-19.38125 22.948125 -18.7625 21.89625 -18.125 20.8125 C-16.48420892 17.94984323 -15.13015547 15.10792754 -14 12 C-13.34 12 -12.68 12 -12 12 C-11.67 14.97 -11.34 17.94 -11 21 C-10.45730469 19.90300781 -9.91460937 18.80601562 -9.35546875 17.67578125 C-8.6329203 16.22130061 -7.91025804 14.7668765 -7.1875 13.3125 C-6.83107422 12.59126953 -6.47464844 11.87003906 -6.10742188 11.12695312 C-2.05574157 2.98642113 -2.05574157 2.98642113 0 0 Z " fill="#2C3D37" transform="translate(184,230)"/>
<path d="M0 0 C4.15916184 1.38638728 5.54003327 4.28503604 7.8125 7.8125 C8.24498047 8.44220703 8.67746094 9.07191406 9.12304688 9.72070312 C12.13492923 14.35773686 12.13492923 14.35773686 11.51171875 17.32421875 C9.82160303 19.19775788 8.3310365 20.0675854 6 21 C4.29970515 18.57058047 2.61479684 16.13271588 0.9375 13.6875 C0.20950195 12.65206055 0.20950195 12.65206055 -0.53320312 11.59570312 C-0.98759766 10.92861328 -1.44199219 10.26152344 -1.91015625 9.57421875 C-2.33433838 8.96151123 -2.75852051 8.34880371 -3.19555664 7.7175293 C-4 6 -4 6 -3 3 C-2.34 3 -1.68 3 -1 3 C-0.67 2.01 -0.34 1.02 0 0 Z " fill="#1C2F29" transform="translate(143,302)"/>
<path d="M0 0 C0.66 0 1.32 0 2 0 C2 2.97 2 5.94 2 9 C3.32 6.69 4.64 4.38 6 2 C6.99 2 7.98 2 9 2 C9.99 5.63 10.98 9.26 12 13 C15.91191492 12.45925684 15.91191492 12.45925684 17.265625 10.37109375 C17.59046875 9.73300781 17.9153125 9.09492188 18.25 8.4375 C19.11625 6.7359375 19.11625 6.7359375 20 5 C20.66 5 21.32 5 22 5 C21.25752466 9.82608972 18.38978244 13.61021756 15 17 C13.0625 16.9375 13.0625 16.9375 11 16 C8.37665094 12.62712264 7.63627303 10.24348127 8 6 C7.34 6 6.68 6 6 6 C5.71125 6.9075 5.4225 7.815 5.125 8.75 C4.23468224 11.32202908 3.28505587 13.61346766 2 16 C0.68 15.67 -0.64 15.34 -2 15 C-2.05429959 13.25034642 -2.09292823 11.50020213 -2.125 9.75 C-2.15980469 8.28820312 -2.15980469 8.28820312 -2.1953125 6.796875 C-1.99862781 3.9803502 -1.44568916 2.39050964 0 0 Z " fill="#1E312B" transform="translate(368,217)"/>
<path d="M0 0 C0.66 0.33 1.32 0.66 2 1 C0.1628218 5.28674913 -2.77682566 7.84877709 -6.125 11 C-9.14907489 14.22567989 -10.27863608 16.77154269 -10.1875 21.1875 C-10.43827256 24.78556725 -10.43827256 24.78556725 -9 26 C-7.53717967 25.90966647 -6.07817808 25.75296509 -4.625 25.5625 C-2.0278572 25.22833993 0.37411693 25 3 25 C2 28 2 28 -0.125 29.25 C-3.82722616 30.21579813 -6.29957484 29.9419264 -10 29 C-12.4375 27.4375 -12.4375 27.4375 -14 25 C-14.86144242 19.25705053 -13.98088631 15.85136797 -10.7109375 11.09765625 C-7.44790816 7.09709288 -3.75505743 3.5341717 0 0 Z " fill="#2D3E39" transform="translate(133,279)"/>
<path d="M0 0 C-0.33 0.99 -0.66 1.98 -1 3 C-1.66 3 -2.32 3 -3 3 C-9.08841614 8.47643617 -15.65512696 16.92976124 -16.22265625 25.2734375 C-16.30321408 27.91252215 -16.30321408 27.91252215 -15 29 C-12.12762267 29.58442963 -12.12762267 29.58442963 -9 29 C-6.47236998 25.91067442 -4.66908113 22.61634246 -3 19 C-3 19.66 -3 20.32 -3 21 C-2.34 21.33 -1.68 21.66 -1 22 C-5.71140262 30.61049445 -5.71140262 30.61049445 -8 32 C-11.7824347 32.63570331 -14.85367666 32.79895263 -18.0625 30.5625 C-19.59246163 26.38060489 -19.35282438 23.14010909 -18 19 C-8.36374068 0 -8.36374068 0 0 0 Z " fill="#33443E" transform="translate(186,258)"/>
<path d="M0 0 C0.99 0.33 1.98 0.66 3 1 C2.75 3.8125 2.75 3.8125 2 7 C-0.0625 8.6875 -0.0625 8.6875 -2 10 C-2 10.99 -2 11.98 -2 13 C3.87615054 12.65434409 6.10541593 11.3396794 10 7 C10.66 7 11.32 7 12 7 C10.43216484 11.23315493 7.61693496 13.42641166 4 16 C0.875 17.0625 0.875 17.0625 -2 17 C-4.375 15.4375 -4.375 15.4375 -6 13 C-6.70462911 8.9483826 -6.16404621 7.28981498 -4.125 3.6875 C-2 1 -2 1 0 0 Z " fill="#273933" transform="translate(214,234)"/>
<path d="M0 0 C3.11824121 1.36253583 5.04737351 2.85108253 7.25 5.4375 C7.77078125 6.03433594 8.2915625 6.63117188 8.828125 7.24609375 C10 9 10 9 10 12 C6.04 11.67 2.08 11.34 -2 11 C-0.35 12.65 1.3 14.3 3 16 C2.67 16.99 2.34 17.98 2 19 C-5.84179688 12.5546875 -5.84179688 12.5546875 -8 9 C-8 8.34 -8 7.68 -8 7 C-3.83861737 6.91840426 -0.0527516 7.01751476 4 8 C2.35 5.69 0.7 3.38 -1 1 C-0.67 0.67 -0.34 0.34 0 0 Z " fill="#2A3C36" transform="translate(329,321)"/>
<path d="M0 0 C0.99 0.33 1.98 0.66 3 1 C2.67 6.28 2.34 11.56 2 17 C1.01 16.67 0.02 16.34 -1 16 C-1.34342449 14.66923011 -1.67619874 13.33568021 -2 12 C-4.84826598 9.63307034 -4.84826598 9.63307034 -8.1875 10.375 C-9.115625 10.58125 -10.04375 10.7875 -11 11 C-11 10.01 -11 9.02 -11 8 C-8.69921875 5.921875 -8.69921875 5.921875 -5.6875 3.75 C-4.70136719 3.02296875 -3.71523437 2.2959375 -2.69921875 1.546875 C-1.36310547 0.78117187 -1.36310547 0.78117187 0 0 Z " fill="#31433D" transform="translate(190,340)"/>
<path d="M0 0 C0 0.99 0 1.98 0 3 C-1.155 2.7525 -2.31 2.505 -3.5 2.25 C-13.77769341 1.10084058 -25.19808909 5.88488169 -34.7421875 9.265625 C-37 10 -37 10 -39 10 C-39.33 9.01 -39.66 8.02 -40 7 C-36.29359533 5.8478638 -32.58456376 4.70441993 -28.875 3.5625 C-27.82828125 3.23701172 -26.7815625 2.91152344 -25.703125 2.57617188 C-24.68476563 2.26357422 -23.66640625 1.95097656 -22.6171875 1.62890625 C-21.68503418 1.34088135 -20.75288086 1.05285645 -19.79248047 0.75610352 C-13.34987664 -0.98832244 -6.44821184 -2.14940395 0 0 Z " fill="#3C4C46" transform="translate(315,184)"/>
<path d="M0 0 C0.99 0.33 1.98 0.66 3 1 C2.34 1.66 1.68 2.32 1 3 C-4.20347914 12.01655495 -8.08366413 25.60210743 -6 36 C-4.52477446 37.63693692 -4.52477446 37.63693692 -3 39 C-3 39.66 -3 40.32 -3 41 C-4.875 40.6875 -4.875 40.6875 -7 40 C-10.89739384 34.15390924 -9.91554988 24.59521779 -8.56494141 17.81640625 C-6.82254245 11.11511179 -4.63240808 5.26589978 0 0 Z " fill="#374842" transform="translate(111,212)"/>
<path d="M0 0 C0.99 0.33 1.98 0.66 3 1 C3.33819866 4.85375577 3.66968331 8.70806128 4 12.5625 C4.09539062 13.64853516 4.19078125 14.73457031 4.2890625 15.85351562 C4.74886969 21.2562501 5.12447531 26.57754412 5 32 C4.34 32 3.68 32 3 32 C1.77036103 26.28158185 0.75622583 20.64258086 0.24609375 14.8125 C0.08619472 12.90338108 0.08619472 12.90338108 -1 11 C-1.5775 11.515625 -2.155 12.03125 -2.75 12.5625 C-5 14 -5 14 -7.140625 13.58984375 C-7.75421875 13.39519531 -8.3678125 13.20054687 -9 13 C-8.43410156 12.64808594 -7.86820313 12.29617187 -7.28515625 11.93359375 C-2.95614348 9.19599341 -2.95614348 9.19599341 -0.24609375 5.04296875 C0.0662845 2.93068384 0.0662845 2.93068384 0 0 Z " fill="#273933" transform="translate(201,236)"/>
<path d="M0 0 C0.66 0.33 1.32 0.66 2 1 C1.01 1.66 0.02 2.32 -1 3 C-0.67 2.01 -0.34 1.02 0 0 Z M-2 3 C-1.26953125 4.546875 -1.26953125 4.546875 -1 7 C-2.14304953 9.51648113 -3.34018254 11.84805818 -4.6875 14.25 C-8.96049316 22.24511263 -11.21168733 30.15255837 -13 39 C-13.99 39 -14.98 39 -16 39 C-14.21044776 27.35036582 -10.68743777 11.68743777 -2 3 Z " fill="#2F413B" transform="translate(136,209)"/>
<path d="M0 0 C3.625 0.375 3.625 0.375 7 1 C7.33 2.32 7.66 3.64 8 5 C5.69 4.34 3.38 3.68 1 3 C1 3.99 1 4.98 1 6 C1.804375 6.226875 2.60875 6.45375 3.4375 6.6875 C6 8 6 8 6.9375 10.5 C6.958125 11.325 6.97875 12.15 7 13 C5 15 5 15 2.125 15.3125 C-1.27610553 14.97238945 -2.60841421 14.39158579 -5 12 C-5 11.34 -5 10.68 -5 10 C-0.545 10.99 -0.545 10.99 4 12 C2.7934375 10.9171875 2.7934375 10.9171875 1.5625 9.8125 C-1.00920966 6.98989184 -1.89834392 5.76127491 -2 2 C-1.34 1.34 -0.68 0.68 0 0 Z " fill="#22352F" transform="translate(215,351)"/>
<path d="M0 0 C3.05623277 2.09110663 3.86463014 3.29306849 4.5625 6.9375 C3.80057749 11.08574477 2.36344489 12.51397551 -1 15 C-4.68455227 15.6767545 -6.24316508 15.49791771 -9.375 13.4375 C-11.63913895 10.04129157 -11.64269755 7.99900698 -11 4 C-7.69532025 0.20933794 -4.96286146 -0.84474238 0 0 Z M-9 5 C-8.73343428 7.93443402 -8.73343428 7.93443402 -8 11 C-5.24301816 13.28138945 -5.24301816 13.28138945 -2.4375 12.8125 C0.33255117 12.16627558 0.33255117 12.16627558 2 9 C1.6758631 5.67759676 1.39223697 4.39223697 -1 2 C-5.26826873 2 -5.93882432 2.37613513 -9 5 Z " fill="#283A34" transform="translate(306,342)"/>
<path d="M0 0 C2.02214527 6.06643581 1.34463163 15.46537761 -0.92578125 21.43359375 C-1.88415843 22.9983623 -2.93661137 24.50460973 -4 26 C-4.77485832 28.77138597 -4.77485832 28.77138597 -5 31 C-7.33478595 27.70383161 -6.95857571 25.12596876 -6.41186523 21.25097656 C-5.71790573 17.45826367 -4.63051076 13.80723505 -3.5 10.125 C-3.27441406 9.36703125 -3.04882812 8.6090625 -2.81640625 7.828125 C-1.16012137 2.32024275 -1.16012137 2.32024275 0 0 Z " fill="#374842" transform="translate(131,227)"/>
<path d="M0 0 C1.32 0.66 2.64 1.32 4 2 C3.34 2 2.68 2 2 2 C1.05517524 5.22307155 0.80476592 8.20808753 0.75 11.5625 C0.72421875 12.51253906 0.6984375 13.46257812 0.671875 14.44140625 C1.04806237 17.37477202 1.71188633 18.21165852 4 20 C3.34 20.33 2.68 20.66 2 21 C1.67 21.66 1.34 22.32 1 23 C0.67 22.34 0.34 21.68 0 21 C-1.32 21.33 -2.64 21.66 -4 22 C-3.97679687 21.24074219 -3.95359375 20.48148438 -3.9296875 19.69921875 C-3.91164063 18.70535156 -3.89359375 17.71148437 -3.875 16.6875 C-3.85179687 15.70136719 -3.82859375 14.71523437 -3.8046875 13.69921875 C-3.79317361 10.77593473 -3.79317361 10.77593473 -6 8 C-5.67 7.01 -5.34 6.02 -5 5 C-4.01 5 -3.02 5 -2 5 C-1.34 3.35 -0.68 1.7 0 0 Z " fill="#EEEFE9" transform="translate(366,215)"/>
<path d="M0 0 C2.82241489 3.19055597 3.91253195 5.71406558 4 10 C2.1875 12.875 2.1875 12.875 0 15 C-0.66 15 -1.32 15 -2 15 C-2.5345256 13.75579353 -3.05208611 12.50429064 -3.5625 11.25 C-3.85253906 10.55390625 -4.14257812 9.8578125 -4.44140625 9.140625 C-5.09086506 6.65178985 -4.92828435 5.38125117 -4 3 C-1.9375 1.25 -1.9375 1.25 0 0 Z " fill="#1C2F29" transform="translate(136,284)"/>
<path d="M0 0 C0.66 0 1.32 0 2 0 C2 4.95 2 9.9 2 15 C1.34 15 0.68 15 0 15 C0 13.02 0 11.04 0 9 C-2.64 9 -5.28 9 -8 9 C-8 10.98 -8 12.96 -8 15 C-8.66 15 -9.32 15 -10 15 C-10 10.38 -10 5.76 -10 1 C-9.34 1 -8.68 1 -8 1 C-8 2.98 -8 4.96 -8 7 C-5.36 7 -2.72 7 0 7 C0 4.69 0 2.38 0 0 Z " fill="#1A2D27" transform="translate(252,355)"/>
<path d="M0 0 C3.74020498 1.68152073 5.56134348 3.69039473 8 7 C4.48283697 7 3.62878252 6.17554415 1 4 C0.63019987 8.04622502 0.63019987 8.04622502 3 11 C-0.10551666 11 -1.35261084 10.4606285 -4 9 C-5.32 9.99 -6.64 10.98 -8 12 C-8 8 -8 8 -6.25 5.859375 C-5.5075 5.16328125 -4.765 4.4671875 -4 3.75 C-3.2575 3.04359375 -2.515 2.3371875 -1.75 1.609375 C-1.1725 1.07828125 -0.595 0.5471875 0 0 Z " fill="#31423C" transform="translate(165,321)"/>
<path d="M0 0 C0 4.95 0 9.9 0 15 C-0.33 15 -0.66 15 -1 15 C-1 10.38 -1 5.76 -1 1 C-3.42219296 1.90380334 -5.83698545 2.82226058 -8.25 3.75 C-9.27287109 4.12898437 -9.27287109 4.12898437 -10.31640625 4.515625 C-14.36817078 6.08912579 -17.12858006 7.59573925 -20 11 C-20.99 10.67 -21.98 10.34 -23 10 C-23 9.34 -23 8.68 -23 8 C-16.57472058 2.72337389 -8.20841313 -1.64168263 0 0 Z " fill="#4C5B55" transform="translate(200,217)"/>
<path d="M0 0 C0.66 0 1.32 0 2 0 C2.02578125 0.89203125 2.0515625 1.7840625 2.078125 2.703125 C2.13484375 3.87359375 2.1915625 5.0440625 2.25 6.25 C2.29640625 7.41015625 2.3428125 8.5703125 2.390625 9.765625 C3.09486601 13.50351959 4.19718584 14.55594605 7 17 C7 17.66 7 18.32 7 19 C3.93795671 18.66896829 2.39949096 18.39949096 0.1875 16.1875 C-1 14 -1 14 -1 10 C-1.66 10 -2.32 10 -3 10 C-2.69201674 8.51988629 -2.378482 7.04092675 -2.0625 5.5625 C-1.88847656 4.73878906 -1.71445312 3.91507813 -1.53515625 3.06640625 C-1 1 -1 1 0 0 Z " fill="#1F322C" transform="translate(338,221)"/>
<path d="M0 0 C0.33 0.66 0.66 1.32 1 2 C1.66 2 2.32 2 3 2 C3.66 4.31 4.32 6.62 5 9 C5.92232422 8.89171875 5.92232422 8.89171875 6.86328125 8.78125 C7.67152344 8.6884375 8.47976562 8.595625 9.3125 8.5 C10.11300781 8.4071875 10.91351563 8.314375 11.73828125 8.21875 C14 8 14 8 17 8 C16 11 16 11 13.875 12.25 C10.17277384 13.21579813 7.70042516 12.9419264 4 12 C1.5625 10.4375 1.5625 10.4375 0 8 C-0.32168155 5.24197626 -0.1862691 2.79403643 0 0 Z " fill="#31423C" transform="translate(119,296)"/>
<path d="M0 0 C0.66 0 1.32 0 2 0 C3.19287411 3.87684087 4 6.91621923 4 11 C3.34 11 2.68 11 2 11 C2 15.62 2 20.24 2 25 C1.67 25 1.34 25 1 25 C1 18.73 1 12.46 1 6 C0.34 6 -0.32 6 -1 6 C-1.66 7.32 -2.32 8.64 -3 10 C-4 7 -4 7 -3.22265625 5.17578125 C-2.1484375 3.45052083 -1.07421875 1.72526042 0 0 Z " fill="#3B4B46" transform="translate(184,230)"/>
<path d="M0 0 C0.99 0 1.98 0 3 0 C2.67 4.29 2.34 8.58 2 13 C2.66 13 3.32 13 4 13 C3.34 14.32 2.68 15.64 2 17 C0.68 16.34 -0.64 15.68 -2 15 C-2.05429959 13.25034642 -2.09292823 11.50020213 -2.125 9.75 C-2.15980469 8.28820312 -2.15980469 8.28820312 -2.1953125 6.796875 C-1.99862781 3.9803502 -1.44568916 2.39050964 0 0 Z " fill="#21332D" transform="translate(294,226)"/>
<path d="M0 0 C3.11824121 1.36253583 5.04737351 2.85108253 7.25 5.4375 C7.77078125 6.03433594 8.2915625 6.63117188 8.828125 7.24609375 C10 9 10 9 10 12 C6.7 11.67 3.4 11.34 0 11 C0.66 10.01 1.32 9.02 2 8 C2.66 8 3.32 8 4 8 C2.35 5.69 0.7 3.38 -1 1 C-0.67 0.67 -0.34 0.34 0 0 Z " fill="#32433D" transform="translate(329,321)"/>
<path d="M0 0 C0.66 0 1.32 0 2 0 C1.36927957 9.98278206 1.36927957 9.98278206 -2 14 C-2.99 14 -3.98 14 -5 14 C-4.53411505 8.29290936 -3.06242216 4.84060277 0 0 Z " fill="#DCDED9" transform="translate(324,242)"/>
<path d="M0 0 C0.66 0.33 1.32 0.66 2 1 C0.36041242 6.23272633 -1.38952035 11.15196636 -4 16 C-4.99 16 -5.98 16 -7 16 C-7.33 15.34 -7.66 14.68 -8 14 C-7.0390625 11.72265625 -7.0390625 11.72265625 -5.625 9.0625 C-4.19875971 6.35742415 -2.96882638 3.90647913 -2 1 C-1.34 0.67 -0.68 0.34 0 0 Z " fill="#2E3F3A" transform="translate(143,228)"/>
<path d="M0 0 C0.99 0.33 1.98 0.66 3 1 C3.25 3.8125 3.25 3.8125 3 7 C1 8.875 1 8.875 -1 10 C-2.32 9.34 -3.64 8.68 -5 8 C-4.66275164 4.88045262 -4.3790035 3.3790035 -2.125 1.125 C-1.42375 0.75375 -0.7225 0.3825 0 0 Z " fill="#34453F" transform="translate(190,340)"/>
<path d="M0 0 C-0.28617188 0.68449219 -0.57234375 1.36898437 -0.8671875 2.07421875 C-2.10980992 5.28361251 -3.12700034 8.51910114 -4.125 11.8125 C-4.47820312 12.97394531 -4.83140625 14.13539063 -5.1953125 15.33203125 C-5.46085937 16.21246094 -5.72640625 17.09289062 -6 18 C-6.99 18 -7.98 18 -9 18 C-7.96720627 11.96119429 -6.79810045 6.47961337 -4 1 C-2 0 -2 0 0 0 Z " fill="#EFEFEA" transform="translate(133,224)"/>
<path d="M0 0 C0 0.66 0 1.32 0 2 C-0.61746094 2.17015625 -1.23492187 2.3403125 -1.87109375 2.515625 C-7.8338204 4.22185424 -13.40114631 6.33581117 -19 9 C-18.8203125 7.171875 -18.8203125 7.171875 -18 5 C-12.42161438 1.33254924 -6.64877231 -0.73875248 0 0 Z " fill="#293B35" transform="translate(288,221)"/>
<path d="M0 0 C0.66 0 1.32 0 2 0 C1.25752466 4.82608972 -1.61021756 8.61021756 -5 12 C-7 11.875 -7 11.875 -9 11 C-10.25 8.9375 -10.25 8.9375 -11 7 C-10.34 6.34 -9.68 5.68 -9 5 C-8.67 5.99 -8.34 6.98 -8 8 C-6.11341126 8.03525132 -6.11341126 8.03525132 -4 7 C-2.40498463 4.75835678 -1.25456982 2.46433357 0 0 Z " fill="#374742" transform="translate(388,222)"/>
<path d="M0 0 C0.66 0 1.32 0 2 0 C2.33 2.64 2.66 5.28 3 8 C1.68 7.67 0.36 7.34 -1 7 C-1.99 8.98 -2.98 10.96 -4 13 C-4.66 12.67 -5.32 12.34 -6 12 C-4.68448876 7.39571066 -2.90803514 3.81679612 0 0 Z " fill="#31423C" transform="translate(303,227)"/>
<path d="M0 0 C0.66 0 1.32 0 2 0 C2.625 2.375 2.625 2.375 3 5 C1 7 1 7 -1.875 7.3125 C-5.27610553 6.97238945 -6.60841421 6.39158579 -9 4 C-9 3.34 -9 2.68 -9 2 C-4.545 2.99 -4.545 2.99 0 4 C0 2.68 0 1.36 0 0 Z " fill="#45554F" transform="translate(219,359)"/>
<path d="M0 0 C-0.33 0.99 -0.66 1.98 -1 3 C-1.66 3 -2.32 3 -3 3 C-4.67080281 4.65160781 -4.67080281 4.65160781 -6.375 6.75 C-8.81617866 9.6243732 -11.27649992 12.38543992 -14 15 C-13.38765415 11.66196837 -12.19402068 9.60869834 -10.125 6.9375 C-9.61195313 6.26589844 -9.09890625 5.59429687 -8.5703125 4.90234375 C-4.52361396 0 -4.52361396 0 0 0 Z " fill="#293B35" transform="translate(186,258)"/>
<path d="M0 0 C0.33 0 0.66 0 1 0 C1.03738281 0.97582031 1.07476562 1.95164063 1.11328125 2.95703125 C1.17902344 4.22933594 1.24476562 5.50164062 1.3125 6.8125 C1.37050781 8.07707031 1.42851563 9.34164062 1.48828125 10.64453125 C2.01822933 14.11953429 2.37756617 14.88377324 5 17 C5 17.66 5 18.32 5 19 C3.125 18.6875 3.125 18.6875 1 18 C-1.39740646 14.40389031 -1.23987692 12.69907673 -1.1875 8.4375 C-1.18105469 7.28121094 -1.17460938 6.12492188 -1.16796875 4.93359375 C-1 2 -1 2 0 0 Z " fill="#192D27" transform="translate(103,234)"/>
<path d="M0 0 C0.33 0 0.66 0 1 0 C1.33 6.93 1.66 13.86 2 21 C1.01 20.67 0.02 20.34 -1 20 C-1.33 17.03 -1.66 14.06 -2 11 C-1.67 11 -1.34 11 -1 11 C-0.67 7.37 -0.34 3.74 0 0 Z " fill="#3F4F49" transform="translate(267,253)"/>
<path d="M0 0 C0.75 1.75 0.75 1.75 1 4 C-0.625 6.25 -0.625 6.25 -3 8 C-5.6875 8.3125 -5.6875 8.3125 -8 8 C-9 7 -9 7 -9.0625 4.4375 C-9.041875 3.633125 -9.02125 2.82875 -9 2 C-8.34 2 -7.68 2 -7 2 C-7 3.32 -7 4.64 -7 6 C-3.8891846 5.34608221 -3.8891846 5.34608221 -2.9375 3 C-2.628125 2.34 -2.31875 1.68 -2 1 C-1.34 0.67 -0.68 0.34 0 0 Z " fill="#1E312B" transform="translate(326,250)"/>
<path d="M0 0 C0.66 0 1.32 0 2 0 C2.50471197 1.76949612 3.00360685 3.54065223 3.5 5.3125 C3.7784375 6.29863281 4.056875 7.28476562 4.34375 8.30078125 C5 11 5 11 5 14 C4.01 14 3.02 14 2 14 C-0.29612756 4.58997722 -0.29612756 4.58997722 0 0 Z " fill="#1D302A" transform="translate(274,352)"/>
<path d="M0 0 C0.66 0 1.32 0 2 0 C2 1.98 2 3.96 2 6 C4.31 6 6.62 6 9 6 C9 6.33 9 6.66 9 7 C6.69 7 4.38 7 2 7 C2 9.31 2 11.62 2 14 C1.34 14 0.68 14 0 14 C0 9.38 0 4.76 0 0 Z " fill="#122620" transform="translate(242,356)"/>
<path d="M0 0 C0 0.66 0 1.32 0 2 C0.66 2.33 1.32 2.66 2 3 C-1.96 3.99 -5.92 4.98 -10 6 C-10.33 5.01 -10.66 4.02 -11 3 C-9.54293274 2.49632243 -8.08429904 1.99717444 -6.625 1.5 C-5.81289063 1.2215625 -5.00078125 0.943125 -4.1640625 0.65625 C-2 0 -2 0 0 0 Z " fill="#43524D" transform="translate(286,188)"/>
<path d="M0 0 C0.99 0.33 1.98 0.66 3 1 C1.02 4.96 -0.96 8.92 -3 13 C-3.33 12.34 -3.66 11.68 -4 11 C-4.66 11 -5.32 11 -6 11 C-6 10.34 -6 9.68 -6 9 C-5.34 9 -4.68 9 -4 9 C-3.71125 8.071875 -3.4225 7.14375 -3.125 6.1875 C-2 3 -2 3 0 0 Z " fill="#F0F0EB" transform="translate(130,213)"/>
<path d="M0 0 C0.99 0.33 1.98 0.66 3 1 C-1.18461538 5.92307692 -1.18461538 5.92307692 -5.3125 6.3125 C-6.199375 6.209375 -7.08625 6.10625 -8 6 C-8 5.01 -8 4.02 -8 3 C-6.865625 2.87625 -5.73125 2.7525 -4.5625 2.625 C-3.386875 2.41875 -2.21125 2.2125 -1 2 C-0.67 1.34 -0.34 0.68 0 0 Z " fill="#2E403A" transform="translate(307,351)"/>
<path d="M0 0 C0.66 0 1.32 0 2 0 C2.98248524 4.0527516 3.08159574 7.83861737 3 12 C2.34 12 1.68 12 1 12 C-0.26237731 9.47524538 -0.09856404 7.68799534 -0.0625 4.875 C-0.05347656 3.96492188 -0.04445312 3.05484375 -0.03515625 2.1171875 C-0.02355469 1.41851562 -0.01195312 0.71984375 0 0 Z " fill="#1E312B" transform="translate(203,256)"/>
<path d="M0 0 C0.99 0.33 1.98 0.66 3 1 C2.6875 3.875 2.6875 3.875 2 7 C1.01 7.66 0.02 8.32 -1 9 C-1.66 8.67 -2.32 8.34 -3 8 C-2.5359375 7.13375 -2.5359375 7.13375 -2.0625 6.25 C-1.07416636 4.15705816 -0.4831387 2.25464725 0 0 Z " fill="#596761" transform="translate(214,234)"/>
<path d="M0 0 C2.2477975 2.05233685 3.0022242 3.00667261 4 6 C6.00016466 7.20882096 6.00016466 7.20882096 8 8 C8 8.66 8 9.32 8 10 C5.125 9.6875 5.125 9.6875 2 9 C-0.29013653 5.5647952 -0.17842973 4.014669 0 0 Z " fill="#42524C" transform="translate(208,241)"/>
<path d="M0 0 C2.90878214 1.06655345 3.83560524 1.67121048 5.25 4.5 C6 7 6 7 6 9 C4.68 8.67 3.36 8.34 2 8 C2.66 8 3.32 8 4 8 C2.35 5.69 0.7 3.38 -1 1 C-0.67 0.67 -0.34 0.34 0 0 Z " fill="#3E4E48" transform="translate(329,321)"/>
<path d="M0 0 C0.53625 0.2475 1.0725 0.495 1.625 0.75 C0.655625 1.36875 -0.31375 1.9875 -1.3125 2.625 C-4.40335362 4.40678846 -4.40335362 4.40678846 -5.375 6.75 C-6.365 6.42 -7.355 6.09 -8.375 5.75 C-8.375 5.09 -8.375 4.43 -8.375 3.75 C-3.23290173 -0.34030544 -3.23290173 -0.34030544 0 0 Z " fill="#32433D" transform="translate(185.375,221.25)"/>
<path d="M0 0 C0.66 0.33 1.32 0.66 2 1 C2.125 8.75 2.125 8.75 1 11 C0.34 11 -0.32 11 -1 11 C-0.67 7.37 -0.34 3.74 0 0 Z " fill="#EBECE7" transform="translate(358,225)"/>
<path d="M0 0 C0 0.66 0 1.32 0 2 C-3.61973402 3.31626692 -6.09567131 4 -10 4 C-9.67 3.01 -9.34 2.02 -9 1 C-6.03421164 -0.16513114 -3.15436364 -0.08762121 0 0 Z " fill="#293B35" transform="translate(296,186)"/>
<path d="M0 0 C0.33 0.66 0.66 1.32 1 2 C1.66 2.33 2.32 2.66 3 3 C2.34 5.31 1.68 7.62 1 10 C0.01 10 -0.98 10 -2 10 C-1.34 6.7 -0.68 3.4 0 0 Z " fill="#DEE0DB" transform="translate(126,232)"/>
<path d="M0 0 C0.66 0 1.32 0 2 0 C1.52797514 4.24822374 -0.96655518 6.19989709 -4 9 C-4.33 8.01 -4.66 7.02 -5 6 C-2.6875 2.8125 -2.6875 2.8125 0 0 Z " fill="#2C3E38" transform="translate(350,231)"/>
<path d="M0 0 C0.99 0.33 1.98 0.66 3 1 C2.21718695 2.33855056 1.42348123 3.67073644 0.625 5 C0.18414062 5.7425 -0.25671875 6.485 -0.7109375 7.25 C-1.34902344 8.11625 -1.34902344 8.11625 -2 9 C-2.66 9 -3.32 9 -4 9 C-2.94124926 5.59687262 -1.99097846 2.98646769 0 0 Z " fill="#32433D" transform="translate(321,243)"/>
<path d="M0 0 C0.66 0.66 1.32 1.32 2 2 C-0.64 3.98 -3.28 5.96 -6 8 C-6 5 -6 5 -4.6875 3.61328125 C-3.125 2.40885417 -1.5625 1.20442708 0 0 Z " fill="#32433D" transform="translate(334,230)"/>
<path d="M0 0 C0 0.66 0 1.32 0 2 C-2.97 2.66 -5.94 3.32 -9 4 C-9.33 3.01 -9.66 2.02 -10 1 C-6.52674819 -0.1577506 -3.63932552 -0.06866652 0 0 Z " fill="#354640" transform="translate(288,221)"/>
<path d="M0 0 C0.763125 0.309375 1.52625 0.61875 2.3125 0.9375 C4.18789677 1.67893593 6.08684652 2.36228217 8 3 C8 3.66 8 4.32 8 5 C5.125 4.75 5.125 4.75 2 4 C0.625 1.9375 0.625 1.9375 0 0 Z " fill="#2D3E39" transform="translate(210,361)"/>
<path d="M0 0 C2.31 0.33 4.62 0.66 7 1 C7.33 2.32 7.66 3.64 8 5 C4.5625 4.1875 4.5625 4.1875 1 3 C0.67 2.01 0.34 1.02 0 0 Z " fill="#4A5953" transform="translate(215,351)"/>
<path d="M0 0 C0.33 0.66 0.66 1.32 1 2 C0.06553465 4.03144641 -0.93224776 6.03533587 -2 8 C-2.66 8 -3.32 8 -4 8 C-3.6875 5.125 -3.6875 5.125 -3 2 C-2.01 1.34 -1.02 0.68 0 0 Z " fill="#1E312B" transform="translate(124,290)"/>
<path d="M0 0 C0.33 0 0.66 0 1 0 C0.67 2.97 0.34 5.94 0 9 C-0.99 9 -1.98 9 -3 9 C-2.69181644 7.68647977 -2.37832335 6.37420428 -2.0625 5.0625 C-1.88847656 4.33160156 -1.71445313 3.60070312 -1.53515625 2.84765625 C-1 1 -1 1 0 0 Z " fill="#F4F4EF" transform="translate(125,241)"/>
<path d="M0 0 C3.875 1.875 3.875 1.875 5 3 C5.04063832 4.66617115 5.042721 6.33388095 5 8 C4.34 8 3.68 8 3 8 C1.92474806 5.34771188 0.90543849 2.71631546 0 0 Z " fill="#182C26" transform="translate(305,343)"/>
<path d="M0 0 C3.36720387 1.39332574 4.9859524 2.9789286 7 6 C4 6 4 6 1.3125 3.5 C0.549375 2.675 -0.21375 1.85 -1 1 C-0.67 0.67 -0.34 0.34 0 0 Z " fill="#22352F" transform="translate(166,322)"/>
<path d="M0 0 C1.41377341 2.63904371 2.37240135 5.07120629 3 8 C1.68 7.34 0.36 6.68 -1 6 C-1.042721 4.33388095 -1.04063832 2.66617115 -1 1 C-0.67 0.67 -0.34 0.34 0 0 Z " fill="#1D302A" transform="translate(296,347)"/>
<path d="M0 0 C0.33 0.66 0.66 1.32 1 2 C1.66 2 2.32 2 3 2 C3 3.65 3 5.3 3 7 C2.01 7.33 1.02 7.66 0 8 C0 5.36 0 2.72 0 0 Z " fill="#384943" transform="translate(119,296)"/>
<path d="M0 0 C0.99 0.33 1.98 0.66 3 1 C2.01 1.495 2.01 1.495 1 2 C1.33 2.66 1.66 3.32 2 4 C1.34 4 0.68 4 0 4 C-0.66 5.32 -1.32 6.64 -2 8 C-2.33 7.01 -2.66 6.02 -3 5 C-1.5625 2.3125 -1.5625 2.3125 0 0 Z " fill="#3A4A45" transform="translate(374,219)"/>
<path d="M0 0 C3.125 -0.1875 3.125 -0.1875 6 0 C6 0.66 6 1.32 6 2 C3.36 2.33 0.72 2.66 -2 3 C-1.34 2.01 -0.68 1.02 0 0 Z " fill="#3C4C47" transform="translate(248,212)"/>
<path d="M0 0 C0.33 0.66 0.66 1.32 1 2 C2.98 2 4.96 2 7 2 C6.67 2.66 6.34 3.32 6 4 C3.69 4 1.38 4 -1 4 C-0.67 2.68 -0.34 1.36 0 0 Z " fill="#1A2E28" transform="translate(240,211)"/>
<path d="M0 0 C3.625 0.375 3.625 0.375 7 1 C7 1.99 7 2.98 7 4 C2.545 3.01 2.545 3.01 -2 2 C-1.34 1.34 -0.68 0.68 0 0 Z " fill="#293B35" transform="translate(308,183)"/>
<path d="M0 0 C1.4606285 2.64738916 2 3.89448334 2 7 C1.01 7 0.02 7 -1 7 C-1.33 5.35 -1.66 3.7 -2 2 C-1.34 2 -0.68 2 0 2 C0 1.34 0 0.68 0 0 Z " fill="#42524C" transform="translate(277,359)"/>
<path d="M0 0 C0.66 0 1.32 0 2 0 C2 1.98 2 3.96 2 6 C0.68 5.34 -0.64 4.68 -2 4 C-1.34 2.68 -0.68 1.36 0 0 Z " fill="#E5E6E1" transform="translate(188,344)"/>
<path d="M0 0 C0.99 0.33 1.98 0.66 3 1 C0.75 3.0625 0.75 3.0625 -2 5 C-4.3125 4.75 -4.3125 4.75 -6 4 C-3.1875 1.9375 -3.1875 1.9375 0 0 Z " fill="#354640" transform="translate(198,245)"/>
<path d="M0 0 C0.99 0.33 1.98 0.66 3 1 C3 2.32 3 3.64 3 5 C1.68 4.67 0.36 4.34 -1 4 C-0.67 2.68 -0.34 1.36 0 0 Z " fill="#283A34" transform="translate(339,209)"/>
<path d="M0 0 C-0.33 0.99 -0.66 1.98 -1 3 C-4.0625 4.1875 -4.0625 4.1875 -7 5 C-5.64703851 0.94111554 -4.27479763 0 0 0 Z " fill="#22352F" transform="translate(253,202)"/>
</svg>
